<svg width="25" height="24" viewBox="0 0 25 24" fill="none" xmlns="http://www.w3.org/2000/svg">
<g clip-path="url(#clip0_702_9657)">
<path d="M12.2 8C13.3 8 14.2 7.1 14.2 6C14.2 4.9 13.3 4 12.2 4C11.1 4 10.2 4.9 10.2 6C10.2 7.1 11.1 8 12.2 8ZM12.2 10C11.1 10 10.2 10.9 10.2 12C10.2 13.1 11.1 14 12.2 14C13.3 14 14.2 13.1 14.2 12C14.2 10.9 13.3 10 12.2 10ZM12.2 16C11.1 16 10.2 16.9 10.2 18C10.2 19.1 11.1 20 12.2 20C13.3 20 14.2 19.1 14.2 18C14.2 16.9 13.3 16 12.2 16Z" fill="#848B96"/>
</g>
<defs>
<clipPath id="clip0_702_9657">
<rect width="24" height="24" fill="white" transform="translate(0.199951)"/>
</clipPath>
</defs>
</svg>
