<svg width="20" height="20" viewBox="0 0 20 20" fill="none" xmlns="http://www.w3.org/2000/svg">
<g clip-path="url(#clip0_702_9118)">
<path fill-rule="evenodd" clip-rule="evenodd" d="M16.6666 2.5H3.33329C2.41663 2.5 1.66663 3.25 1.66663 4.16667V15.8333C1.66663 16.75 2.41663 17.5 3.33329 17.5H16.6666C17.5833 17.5 18.3333 16.75 18.3333 15.8333V4.16667C18.3333 3.25 17.5833 2.5 16.6666 2.5ZM8.33329 14.1667H4.16663V12.5H8.33329V14.1667ZM8.33329 10.8333H4.16663V9.16667H8.33329V10.8333ZM8.33329 7.5H4.16663V5.83333H8.33329V7.5ZM12.35 12.5L9.99996 10.1333L11.175 8.95833L12.35 10.1417L14.9916 7.5L16.175 8.68333L12.35 12.5Z" fill="#00BDFF"/>
</g>
<defs>
<clipPath id="clip0_702_9118">
<rect width="20" height="20" fill="white"/>
</clipPath>
</defs>
</svg>
