<svg width="20" height="20" viewBox="0 0 20 20" fill="none" xmlns="http://www.w3.org/2000/svg">
<path d="M17.2546 4.51251C17.2546 3.47002 16.4065 2.62189 15.364 2.62189H14.9859V4.16876C14.9859 4.45352 14.755 4.68439 14.4703 4.68439C14.1855 4.68439 13.9546 4.45352 13.9546 4.16876V2.62189H11.6859V4.16876C11.6859 4.45352 11.455 4.68439 11.1703 4.68439C10.8855 4.68439 10.6546 4.45352 10.6546 4.16876V2.62189H8.38589V4.16876C8.38589 4.45352 8.15503 4.68439 7.87026 4.68439C7.5855 4.68439 7.35464 4.45352 7.35464 4.16876V2.62189H5.08589V4.16876C5.08589 4.45352 4.85503 4.68439 4.57026 4.68439C4.2855 4.68439 4.05464 4.45352 4.05464 4.16876V2.62189H3.67651C2.63402 2.62189 1.78589 3.47002 1.78589 4.51251V6.05939H17.2546V4.51251Z" fill="#00BDFF"/>
<path d="M5.08589 2.10626C5.08589 1.8215 4.85503 1.59064 4.57026 1.59064C4.2855 1.59064 4.05464 1.8215 4.05464 2.10626L4.05464 2.62189H5.08589L5.08589 2.10626Z" fill="#00BDFF"/>
<path d="M14.9859 2.10626C14.9859 1.8215 14.755 1.59064 14.4703 1.59064C14.1855 1.59064 13.9546 1.8215 13.9546 2.10626L13.9546 2.62189H14.9859L14.9859 2.10626Z" fill="#00BDFF"/>
<path d="M11.6859 2.10626C11.6859 1.8215 11.455 1.59064 11.1703 1.59064C10.8855 1.59064 10.6546 1.8215 10.6546 2.10626L10.6546 2.62189H11.6859V2.10626Z" fill="#00BDFF"/>
<path d="M8.38589 2.10626C8.38589 1.8215 8.15503 1.59064 7.87026 1.59064C7.5855 1.59064 7.35464 1.8215 7.35464 2.10626L7.35464 2.62189H8.38589V2.10626Z" fill="#00BDFF"/>
<path d="M15.6046 10.5969C16.184 10.5969 16.7398 10.6998 17.2546 10.8883V7.09064H1.78589V14.825C1.78589 15.678 2.47982 16.3719 3.33276 16.3719H10.8889C10.8255 16.0608 10.7921 15.7389 10.7921 15.4094C10.7921 12.7558 12.951 10.5969 15.6046 10.5969ZM13.6796 8.89533H14.539C14.8238 8.89533 15.0546 9.12619 15.0546 9.41095C15.0546 9.69571 14.8238 9.92657 14.539 9.92657H13.6796C13.3949 9.92657 13.164 9.69571 13.164 9.41095C13.164 9.12619 13.3949 8.89533 13.6796 8.89533ZM10.6203 8.89533H11.4796C11.7644 8.89533 11.9953 9.12619 11.9953 9.41095C11.9953 9.69571 11.7644 9.92657 11.4796 9.92657H10.6203C10.3355 9.92657 10.1046 9.69571 10.1046 9.41095C10.1046 9.12619 10.3355 8.89533 10.6203 8.89533ZM5.36089 14.5672H4.50151C4.21675 14.5672 3.98589 14.3363 3.98589 14.0516C3.98589 13.7668 4.21675 13.5359 4.50151 13.5359H5.36089C5.64565 13.5359 5.87651 13.7668 5.87651 14.0516C5.87651 14.3363 5.64565 14.5672 5.36089 14.5672ZM5.36089 12.2469H4.50151C4.21675 12.2469 3.98589 12.016 3.98589 11.7313C3.98589 11.4465 4.21675 11.2156 4.50151 11.2156H5.36089C5.64565 11.2156 5.87651 11.4465 5.87651 11.7313C5.87651 12.016 5.64565 12.2469 5.36089 12.2469ZM8.42026 14.5672H7.56089C7.27613 14.5672 7.04526 14.3363 7.04526 14.0516C7.04526 13.7668 7.27613 13.5359 7.56089 13.5359H8.42026C8.70503 13.5359 8.93589 13.7668 8.93589 14.0516C8.93589 14.3363 8.70503 14.5672 8.42026 14.5672ZM8.42026 12.2469H7.56089C7.27613 12.2469 7.04526 12.016 7.04526 11.7313C7.04526 11.4465 7.27613 11.2156 7.56089 11.2156H8.42026C8.70503 11.2156 8.93589 11.4465 8.93589 11.7313C8.93589 12.016 8.70503 12.2469 8.42026 12.2469ZM8.42026 9.92657H7.56089C7.27613 9.92657 7.04526 9.69571 7.04526 9.41095C7.04526 9.12619 7.27613 8.89533 7.56089 8.89533H8.42026C8.70503 8.89533 8.93589 9.12619 8.93589 9.41095C8.93589 9.69571 8.70503 9.92657 8.42026 9.92657ZM10.1046 11.7313C10.1046 11.4465 10.3355 11.2156 10.6203 11.2156H11.4796C11.7644 11.2156 11.9953 11.4465 11.9953 11.7313C11.9953 12.016 11.7644 12.2469 11.4796 12.2469H10.6203C10.3355 12.2469 10.1046 12.016 10.1046 11.7313Z" fill="#00BDFF"/>
<path d="M15.6046 11.6281C13.5197 11.6281 11.8234 13.3244 11.8234 15.4094C11.8234 17.4944 13.5197 19.1906 15.6046 19.1906C17.6896 19.1906 19.3859 17.4944 19.3859 15.4094C19.3859 13.3244 17.6896 11.6281 15.6046 11.6281ZM17.3234 15.925H15.6046C15.3199 15.925 15.089 15.6941 15.089 15.4094V13.6906C15.089 13.4059 15.3199 13.175 15.6046 13.175C15.8894 13.175 16.1203 13.4059 16.1203 13.6906V14.8938H17.3234C17.6082 14.8938 17.839 15.1246 17.839 15.4094C17.839 15.6941 17.6082 15.925 17.3234 15.925Z" fill="#00BDFF"/>
</svg>
