<svg width="21" height="20" viewBox="0 0 21 20" fill="none" xmlns="http://www.w3.org/2000/svg">
<path d="M13.2715 8.17252C14.4384 7.10865 16.0165 5.66982 16.1603 2.23242H17.2022V1.20117H3.7959V2.23242H4.83777C4.9816 5.66982 6.55961 7.10865 7.72651 8.17252C8.50926 8.88618 8.95215 9.32299 8.95215 10.0012C8.95215 10.6794 8.50926 11.1162 7.72651 11.8298C6.55961 12.8937 4.9816 14.3325 4.83777 17.7699H3.7959V18.8012H17.2022V17.7699H16.1603C16.0165 14.3325 14.4384 12.8937 13.2715 11.8298C12.4888 11.1162 12.0459 10.6794 12.0459 10.0012C12.0459 9.32299 12.4888 8.88618 13.2715 8.17252ZM9.9834 13.8662C9.82414 13.8991 9.66681 13.9469 9.51325 14.0104L6.35498 15.3173C6.87074 14.0059 7.70145 13.2482 8.4213 12.5919C9.22464 11.8595 9.9834 11.1677 9.9834 10.0012V13.8662ZM12.5768 12.5919C13.2966 13.2482 14.1273 14.0059 14.6431 15.3173L11.4848 14.0104C11.3312 13.9469 11.1739 13.8991 11.0146 13.8662V10.0012C11.0146 11.1677 11.7734 11.8595 12.5768 12.5919ZM6.33686 4.63867C6.08754 3.98902 5.91536 3.20462 5.87029 2.23242H15.1277C15.0827 3.20462 14.9105 3.98902 14.6611 4.63867H6.33686Z" fill="#F62D38"/>
</svg>
